<svg width="46" height="43" viewBox="0 0 46 43" xmlns="http://www.w3.org/2000/svg"><path d="M20.29 18.5l1.608-1.586c.856-.844.65-2.42-.462-3.52L8.26.403 6.634 2l11.647 11.48-1.657 1.637L4.98 3.634 3.276 5.31l11.647 11.483-1.66 1.634L1.62 6.947 0 8.542l13.18 12.995c1.114 1.098 2.712 1.302 3.568.457l1.61-1.586 19.416 21.68c.622.6 1.427.902 2.235.902.818 0 1.63-.304 2.25-.92.627-.614.932-1.413.932-2.218 0-.8-.305-1.594-.916-2.207L20.29 18.5zM45.206 1.67L43.55.033 23.503 19.798l6.266 5.46c.17-.1.33-.22.476-.36l14.96-19.53c.596-.586.78-1.18.78-1.85 0-.67-.258-1.337-.78-1.848zM5.41 37.64c-.622.616-.934 1.415-.934 2.22 0 .805.312 1.605.934 2.22.622.615 1.434.92 2.25.92.807 0 1.604-.297 2.23-.896l12.522-15.48-2.737-3.05L5.41 37.64z"/></svg>
