<svg width="35" height="35" viewBox="0 0 35 35" xmlns="http://www.w3.org/2000/svg"><g fill="none" fill-rule="evenodd"><g fill="#D5D2C2"><g><path d="M17.5 3.398c7.793 0 14.102 6.307 14.102 14.102 0 7.794-6.307 14.102-14.102 14.102-7.794 0-14.102-6.307-14.102-14.102 0-7.794 6.307-14.102 14.102-14.102zM17.5 0C7.835 0 0 7.835 0 17.5S7.835 35 17.5 35 35 27.165 35 17.5 27.165 0 17.5 0zm-4.954 14.142l-2.41-4.005 4.013 2.414c-.63.425-1.175.966-1.604 1.592zm8.412-1.517c.55.387 1.03.865 1.42 1.41l2.485-3.898-3.905 2.488zm-8.36 8.373l-2.46 3.865 3.857-2.458c-.54-.39-1.01-.864-1.396-1.407zm8.302 1.48l3.963 2.385-2.39-3.97c-.42.62-.955 1.16-1.573 1.585zm8.85-4.978l-8.43 1.87c-.372.756-.96 1.386-1.688 1.808L17.5 29.75l-2.133-8.572c-.726-.422-1.315-1.052-1.687-1.81L5.25 17.5l8.43-1.87c.372-.756.96-1.386 1.687-1.808L17.5 5.25l2.133 8.572c.726.422 1.315 1.052 1.687 1.81l8.43 1.868zm-10.347 0c0-1.05-.852-1.904-1.903-1.904-1.05 0-1.904.853-1.904 1.904 0 1.05.853 1.904 1.904 1.904 1.05 0 1.903-.853 1.903-1.904z"/></g></g></g></svg>