<svg width="44" height="44" viewBox="0 0 44 44" xmlns="http://www.w3.org/2000/svg"><path d="M12.674 4.78l-.29.222v.003l.29-.225zM7.63 2.55c1.375-.005 2.566.587 3.435 1.226.432.316.774.638 1.002.873.114.116.2.213.252.275.026.03.045.055.055.068l.008.01 2.01-1.534v-.002c-.05-.062-.68-.88-1.824-1.72C11.43.91 9.742.03 7.63.027 5.516.017 3.104.957.723 3.343l1.79 1.782C4.574 3.09 6.26 2.556 7.63 2.55zm8.604 2.86l-.288.224.29-.22-.002-.004zm-.183 3.258c1.14.835 2.826 1.717 4.94 1.72h.027c2.11 0 4.508-.94 6.88-3.316l-1.79-1.783c-2.06 2.033-3.746 2.568-5.118 2.576-1.375.004-2.567-.588-3.436-1.227-.43-.317-.773-.64-1-.873-.115-.118-.2-.214-.253-.277-.027-.03-.045-.054-.056-.068l-.007-.01-2.01 1.536c.05.06.68.88 1.824 1.72zm18.902-6.12c1.375-.003 2.566.59 3.435 1.228.43.316.775.638 1 .873.115.116.2.213.254.275.028.03.047.055.058.068l.007.01.003.002.26-.204 1.748-1.332c-.05-.06-.683-.88-1.825-1.72C38.753.91 37.066.03 34.953.027c-2.114-.01-4.525.93-6.907 3.315l1.792 1.783c2.057-2.035 3.743-2.57 5.115-2.577zm2.315 3.827v18.227l-9.485-5.04v6.12l-13.352-6.12v6.614L0 19.56V44h43.96V6.375h-6.693z"/></svg>
