<svg width="30" height="34" viewBox="0 0 30 34" xmlns="http://www.w3.org/2000/svg"><g fill="none" fill-rule="evenodd"><g fill="#D5D2C2"><g><path d="M22.767 29.977c-1.585 0-2.872-1.284-2.872-2.87 0-1.585 1.287-2.87 2.872-2.87 1.586 0 2.873 1.285 2.873 2.87 0 1.586-1.287 2.87-2.873 2.87zm-5.534-5.886c-.997 0-1.806-.805-1.806-1.804 0-.997.81-1.804 1.806-1.804.997 0 1.807.807 1.807 1.804 0 1-.81 1.805-1.807 1.805zm-3.172-7.58L7.026 27.934v.002-.002l-2.418-1.487 7-11.362c.91-1.635 1.765-4.985 1.74-6.835V4.33h2.84v3.92c-.023 2.56-.898 5.973-2.107 8.232l-.02.028zm15.154 9.878l-.02-.036-.02-.035-6.76-11.356c-.866-1.603-1.624-4.57-1.624-6.377V3.338h1.427V.5H8.003v2.838h1.665v5.245c0 1.803-.753 4.758-1.618 6.365L1.066 26.286l-.03.05-.03.052c-.918 1.676-.97 3.438-.145 4.835.83 1.393 2.4 2.194 4.312 2.194H25.05c1.91 0 3.48-.8 4.31-2.194.826-1.397.773-3.16-.146-4.835z"/></g></g></g></svg>