<svg width="13" height="13" viewBox="0 0 13 13" xmlns="http://www.w3.org/2000/svg"><g fill="none" fill-rule="evenodd"><g fill="#fff"><g><g><path d="M.067 3.618h2.566v8.347H.067V3.618zm2.65-2.32c0 .715-.523 1.296-1.384 1.296C.523 2.594 0 2.014 0 1.297 0 .562.54 0 1.367 0S2.7.562 2.717 1.297z"/><path d="M4.2 6.356c0-1.04-.033-1.912-.067-2.663H6.36l.12 1.16h.05c.337-.545 1.165-1.347 2.55-1.347 1.686 0 2.952 1.143 2.952 3.6v4.934H9.467V7.414c0-1.076-.372-1.81-1.3-1.81-.71 0-1.13.496-1.316.974-.067.17-.084.41-.084.65v4.812H4.2V6.356"/></g></g></g></g></svg>