<svg width="27" height="52" viewBox="0 0 27 52" xmlns="http://www.w3.org/2000/svg"><g fill="none" fill-rule="evenodd"><g fill="#D5D2C2"><g><path d="M5.21 51.375h16.747l2.92-12.46H2.287l2.924 12.46zM15.488 29.09V17.84h-2.92v11.25H.293v7.32H26.87v-7.32H15.487zm1.886-7.492c1.22 1.215 3.196 1.215 4.415 0 1.22-1.22 2.748-7.166 2.748-7.166s-5.944 1.533-7.163 2.75c-1.22 1.22-1.22 3.197 0 4.416zm-6.585 0c1.22-1.22 1.22-3.195 0-4.416-1.22-1.217-7.164-2.75-7.164-2.75s1.533 5.947 2.752 7.166c1.22 1.215 3.193 1.215 4.412 0zm3.304-5.286c2.667 0 4.833-2.163 4.833-4.833 0-2.67-4.833-10.853-4.833-10.853S9.26 8.81 9.26 11.48c0 2.67 2.16 4.832 4.832 4.832z"/></g></g></g></svg>