<svg xmlns="http://www.w3.org/2000/svg" xmlns:xlink="http://www.w3.org/1999/xlink" viewBox="0 325 612 148" enable-background="new 0 325 612 148"><path fill="#fff" d="M264.6 421.2h-9.1v-21.6c0-4.1-.6-7-2-8.8-1.3-1.8-3.5-2.7-6.5-2.7-3.7 0-6.5 1.4-8.5 4v29.1h-9.1v-60.6h9.1v23.3c2.8-2.4 6-3.6 9.3-3.6 11.1 0 16.8 6.4 16.8 19.3v21.6z"/><defs><path id="a" d="M264.6 421.2h-9.1v-21.6c0-4.1-.6-7-2-8.8-1.3-1.8-3.5-2.7-6.5-2.7-3.7 0-6.5 1.4-8.5 4v29.1h-9.1v-60.6h9.1v23.3c2.8-2.4 6-3.6 9.3-3.6 11.1 0 16.8 6.4 16.8 19.3v21.6z"/></defs><clipPath id="b"><use xlink:href="#a" overflow="visible"/></clipPath><path clip-path="url(#b)" fill="#fff" d="M224.2 355.3h45.7v71.1h-45.7z"/><path fill="#fff" d="M280.5 401.1c0 4.1.9 7.2 2.8 9.6 1.9 2.4 4.6 3.6 8 3.6 3.4 0 6.1-1.2 8-3.6 1.9-2.4 2.8-5.6 2.8-9.6 0-4.1-.9-7.2-2.8-9.5s-4.6-3.6-8-3.6c-3.4 0-6.1 1.2-8 3.6-1.8 2.3-2.8 5.4-2.8 9.5zm-9.3 0c0-2.9.4-5.7 1.4-8.2s2.3-4.7 4.1-6.6c1.8-1.9 3.9-3.4 6.4-4.4s5.3-1.6 8.4-1.6 5.9.5 8.3 1.6c2.5 1 4.6 2.5 6.4 4.4 1.8 1.9 3.1 4.1 4.1 6.6s1.5 5.2 1.5 8.2c0 2.9-.4 5.7-1.4 8.2-.9 2.5-2.3 4.7-4.1 6.6-1.8 1.9-3.9 3.4-6.4 4.4-2.5 1-5.3 1.6-8.4 1.6-3.1 0-6-.5-8.4-1.6-2.5-1-4.6-2.5-6.4-4.4-1.8-1.9-3.1-4.1-4.1-6.6-1-2.5-1.4-5.2-1.4-8.2z"/><defs><path id="c" d="M280.5 401.1c0 4.1.9 7.2 2.8 9.6 1.9 2.4 4.6 3.6 8 3.6 3.4 0 6.1-1.2 8-3.6 1.9-2.4 2.8-5.6 2.8-9.6 0-4.1-.9-7.2-2.8-9.5s-4.6-3.6-8-3.6c-3.4 0-6.1 1.2-8 3.6-1.8 2.3-2.8 5.4-2.8 9.5zm-9.3 0c0-2.9.4-5.7 1.4-8.2s2.3-4.7 4.1-6.6c1.8-1.9 3.9-3.4 6.4-4.4s5.3-1.6 8.4-1.6 5.9.5 8.3 1.6c2.5 1 4.6 2.5 6.4 4.4 1.8 1.9 3.1 4.1 4.1 6.6s1.5 5.2 1.5 8.2c0 2.9-.4 5.7-1.4 8.2-.9 2.5-2.3 4.7-4.1 6.6-1.8 1.9-3.9 3.4-6.4 4.4-2.5 1-5.3 1.6-8.4 1.6-3.1 0-6-.5-8.4-1.6-2.5-1-4.6-2.5-6.4-4.4-1.8-1.9-3.1-4.1-4.1-6.6-1-2.5-1.4-5.2-1.4-8.2z"/></defs><clipPath id="d"><use xlink:href="#c" overflow="visible"/></clipPath><path clip-path="url(#d)" fill="#fff" d="M266 375h50.9v52.2H266z"/><path fill="#fff" d="M352.8 421.2h-8.4l-.4-3c-2.7 2.5-5.9 3.8-9.6 3.8-10.9 0-16.3-6.3-16.3-18.9v-22h9.1v21.5c0 4.1.6 7 2 8.8 1.4 1.9 3.5 2.8 6.4 2.8 3.6 0 6.3-1.3 8.1-3.7v-29.3h9.1v40z"/><defs><path id="e" d="M352.8 421.2h-8.4l-.4-3c-2.7 2.5-5.9 3.8-9.6 3.8-10.9 0-16.3-6.3-16.3-18.9v-22h9.1v21.5c0 4.1.6 7 2 8.8 1.4 1.9 3.5 2.8 6.4 2.8 3.6 0 6.3-1.3 8.1-3.7v-29.3h9.1v40z"/></defs><clipPath id="f"><use xlink:href="#e" overflow="visible"/></clipPath><path clip-path="url(#f)" fill="#fff" d="M312.9 375.8h45.3v51.5h-45.3z"/><path fill="#fff" d="M378.2 423.5l-5.6-.8c-1.7.5-3.1 1.4-4.2 2.3-1 1-1.6 2.2-1.6 3.7 0 1.8.9 3.2 2.8 4.4 1.9 1.2 4.5 1.7 8 1.7 3.4 0 6.1-.5 8.2-1.6s3.1-2.5 3.1-4.2c0-1.6-.9-2.7-2.7-3.6-1.9-.8-4.5-1.4-8-1.9zm-2.2-36.3c-2.6 0-4.6.8-6 2.4-1.4 1.6-2.1 3.8-2.1 6.5s.7 4.9 2.1 6.5c1.4 1.6 3.4 2.4 6 2.4s4.6-.8 6-2.4c1.4-1.7 2.1-3.9 2.1-6.6 0-2.7-.7-4.9-2.1-6.5-1.4-1.5-3.4-2.3-6-2.3zm1.8 54.1c-3.1 0-5.9-.3-8.3-.9-2.4-.6-4.3-1.6-5.9-2.6-1.6-1.2-2.7-2.4-3.6-3.8-.8-1.5-1.3-2.9-1.3-4.6 0-3.9 2.3-6.9 6.8-9-2.5-1.4-3.8-3.2-3.8-5.6 0-2.4 1.4-4.3 4.2-5.7-4.3-2.9-6.4-7.3-6.4-13 0-2.3.4-4.4 1.2-6.3.7-2 1.8-3.7 3.2-5 1.4-1.4 3.1-2.5 5.1-3.4s4.3-1.3 6.8-1.3c3.6 0 6.8.8 9.4 2.6 2.6-1.3 5.6-1.9 9-1.9h2l-.7 5.9h-3c-.9 0-2 .1-3 .2 1.9 2.6 2.8 5.7 2.8 9 0 2.2-.3 4.2-1 6.1-.7 1.9-1.8 3.6-3.1 5-1.4 1.5-3.1 2.6-5.1 3.5-2 .8-4.3 1.3-6.8 1.3-1.7 0-3.2-.2-4.7-.5-.8.4-1.3.9-1.3 1.6 0 .5.2.8.5 1.3.3.3.9.6 1.8.8.8.3 1.9.5 3.2.7 1.4.2 3.1.5 5.2.7 1.8.3 3.6.6 5.4 1 1.9.4 3.6 1 5.1 1.9 1.6.8 2.8 2 3.9 3.4s1.6 3.2 1.7 5.4c0 3.9-1.7 7-5.1 9.3-3.2 2.7-8 3.9-14.2 3.9z"/><defs><path id="g" d="M378.2 423.5l-5.6-.8c-1.7.5-3.1 1.4-4.2 2.3-1 1-1.6 2.2-1.6 3.7 0 1.8.9 3.2 2.8 4.4 1.9 1.2 4.5 1.7 8 1.7 3.4 0 6.1-.5 8.2-1.6s3.1-2.5 3.1-4.2c0-1.6-.9-2.7-2.7-3.6-1.9-.8-4.5-1.4-8-1.9zm-2.2-36.3c-2.6 0-4.6.8-6 2.4-1.4 1.6-2.1 3.8-2.1 6.5s.7 4.9 2.1 6.5c1.4 1.6 3.4 2.4 6 2.4s4.6-.8 6-2.4c1.4-1.7 2.1-3.9 2.1-6.6 0-2.7-.7-4.9-2.1-6.5-1.4-1.5-3.4-2.3-6-2.3zm1.8 54.1c-3.1 0-5.9-.3-8.3-.9-2.4-.6-4.3-1.6-5.9-2.6-1.6-1.2-2.7-2.4-3.6-3.8-.8-1.5-1.3-2.9-1.3-4.6 0-3.9 2.3-6.9 6.8-9-2.5-1.4-3.8-3.2-3.8-5.6 0-2.4 1.4-4.3 4.2-5.7-4.3-2.9-6.4-7.3-6.4-13 0-2.3.4-4.4 1.2-6.3.7-2 1.8-3.7 3.2-5 1.4-1.4 3.1-2.5 5.1-3.4s4.3-1.3 6.8-1.3c3.6 0 6.8.8 9.4 2.6 2.6-1.3 5.6-1.9 9-1.9h2l-.7 5.9h-3c-.9 0-2 .1-3 .2 1.9 2.6 2.8 5.7 2.8 9 0 2.2-.3 4.2-1 6.1-.7 1.9-1.8 3.6-3.1 5-1.4 1.5-3.1 2.6-5.1 3.5-2 .8-4.3 1.3-6.8 1.3-1.7 0-3.2-.2-4.7-.5-.8.4-1.3.9-1.3 1.6 0 .5.2.8.5 1.3.3.3.9.6 1.8.8.8.3 1.9.5 3.2.7 1.4.2 3.1.5 5.2.7 1.8.3 3.6.6 5.4 1 1.9.4 3.6 1 5.1 1.9 1.6.8 2.8 2 3.9 3.4s1.6 3.2 1.7 5.4c0 3.9-1.7 7-5.1 9.3-3.2 2.7-8 3.9-14.2 3.9z"/></defs><clipPath id="h"><use xlink:href="#g" overflow="visible"/></clipPath><path clip-path="url(#h)" fill="#fff" d="M353.7 375h48.9v71.6h-48.9z"/><path fill="#fff" d="M490.1 388c-3.1 0-5.6 1.2-7.3 3.5s-2.6 5.6-2.6 9.6c0 4.2.8 7.4 2.6 9.7s4.2 3.5 7.3 3.5c3.2 0 5.8-1.3 7.8-3.7 1.9-2.4 2.8-5.7 2.8-9.5 0-3.9-.9-7-2.8-9.4-1.9-2.5-4.5-3.7-7.8-3.7zm.7 33.9c-4.2 0-7.8-1.4-10.7-4l-.3 3.1h-8.5v-60.5h9.1v23.2c2.6-2.3 6.1-3.5 10.4-3.5 2.9 0 5.6.5 8 1.6s4.4 2.5 6.1 4.4c1.7 1.9 2.9 4.1 3.9 6.6.9 2.5 1.4 5.2 1.4 8.2 0 2.9-.4 5.7-1.4 8.2-.8 2.5-2.2 4.7-3.9 6.6-1.7 1.9-3.7 3.4-6.1 4.4-2.4 1.2-5 1.7-8 1.7z"/><defs><path id="i" d="M490.1 388c-3.1 0-5.6 1.2-7.3 3.5s-2.6 5.6-2.6 9.6c0 4.2.8 7.4 2.6 9.7s4.2 3.5 7.3 3.5c3.2 0 5.8-1.3 7.8-3.7 1.9-2.4 2.8-5.7 2.8-9.5 0-3.9-.9-7-2.8-9.4-1.9-2.5-4.5-3.7-7.8-3.7zm.7 33.9c-4.2 0-7.8-1.4-10.7-4l-.3 3.1h-8.5v-60.5h9.1v23.2c2.6-2.3 6.1-3.5 10.4-3.5 2.9 0 5.6.5 8 1.6s4.4 2.5 6.1 4.4c1.7 1.9 2.9 4.1 3.9 6.6.9 2.5 1.4 5.2 1.4 8.2 0 2.9-.4 5.7-1.4 8.2-.8 2.5-2.2 4.7-3.9 6.6-1.7 1.9-3.7 3.4-6.1 4.4-2.4 1.2-5 1.7-8 1.7z"/></defs><clipPath id="j"><use xlink:href="#i" overflow="visible"/></clipPath><path clip-path="url(#j)" fill="#fff" d="M466 355.3h49.3v71.9H466z"/><path fill="#fff" d="M436.5 421.2h-9.1v-21.6c0-4.1-.6-7-2-8.8-1.3-1.8-3.5-2.7-6.5-2.7-3.7 0-6.5 1.4-8.5 4v29.1h-9.1v-60.6h9.1v23.3c2.8-2.4 6-3.6 9.3-3.6 11.1 0 16.8 6.4 16.8 19.3v21.6z"/><defs><path id="k" d="M436.5 421.2h-9.1v-21.6c0-4.1-.6-7-2-8.8-1.3-1.8-3.5-2.7-6.5-2.7-3.7 0-6.5 1.4-8.5 4v29.1h-9.1v-60.6h9.1v23.3c2.8-2.4 6-3.6 9.3-3.6 11.1 0 16.8 6.4 16.8 19.3v21.6z"/></defs><clipPath id="l"><use xlink:href="#k" overflow="visible"/></clipPath><path clip-path="url(#l)" fill="#fff" d="M396 355.3h45.7v71.1H396z"/><path fill="#fff" d="M464.6 414.4l-.8 7.5h-6.9c-1.8 0-3.4-.3-4.7-.8-1.4-.5-2.5-1.3-3.4-2.2-.8-.9-1.6-2-2-3.2-.4-1.3-.6-2.6-.6-4.1v-23.2H440l.8-7.4h5.2v-11.9l9.1-.9V381h9.3v7.4h-9.3v19.1c0 1.7.1 2.9.2 3.9s.4 1.7.8 2.1c.4.4 1.2.7 2 .8.9.1 2.2.2 3.8.2h2.5v-.1z"/><defs><path id="m" d="M464.6 414.4l-.8 7.5h-6.9c-1.8 0-3.4-.3-4.7-.8-1.4-.5-2.5-1.3-3.4-2.2-.8-.9-1.6-2-2-3.2-.4-1.3-.6-2.6-.6-4.1v-23.2H440l.8-7.4h5.2v-11.9l9.1-.9V381h9.3v7.4h-9.3v19.1c0 1.7.1 2.9.2 3.9s.4 1.7.8 2.1c.4.4 1.2.7 2 .8.9.1 2.2.2 3.8.2h2.5v-.1z"/></defs><clipPath id="n"><use xlink:href="#m" overflow="visible"/></clipPath><path clip-path="url(#n)" fill="#fff" d="M434.8 362.9h35.1v64.3h-35.1z"/><path fill="#fff" d="M524.3 401.1c0 4.1.9 7.2 2.8 9.6 1.9 2.4 4.6 3.6 8 3.6s6.1-1.2 8-3.6 2.8-5.6 2.8-9.6c0-4.1-.9-7.2-2.8-9.5s-4.6-3.6-8-3.6-6.1 1.2-8 3.6c-1.9 2.3-2.8 5.4-2.8 9.5zm-9.3 0c0-2.9.4-5.7 1.4-8.2.9-2.5 2.3-4.7 4.1-6.6 1.8-1.9 3.9-3.4 6.4-4.4 2.5-1 5.3-1.6 8.4-1.6 3 0 5.9.5 8.3 1.6 2.5 1 4.6 2.5 6.4 4.4s3.1 4.1 4.1 6.6 1.5 5.2 1.5 8.2c0 2.9-.4 5.7-1.4 8.2-.9 2.5-2.3 4.7-4.1 6.6-1.8 1.9-3.9 3.4-6.4 4.4-2.5 1-5.3 1.6-8.4 1.6-3.1 0-6-.5-8.4-1.6-2.5-1-4.6-2.5-6.4-4.4-1.8-1.9-3.1-4.1-4.1-6.6-1-2.5-1.4-5.2-1.4-8.2z"/><defs><path id="o" d="M524.3 401.1c0 4.1.9 7.2 2.8 9.6 1.9 2.4 4.6 3.6 8 3.6s6.1-1.2 8-3.6 2.8-5.6 2.8-9.6c0-4.1-.9-7.2-2.8-9.5s-4.6-3.6-8-3.6-6.1 1.2-8 3.6c-1.9 2.3-2.8 5.4-2.8 9.5zm-9.3 0c0-2.9.4-5.7 1.4-8.2.9-2.5 2.3-4.7 4.1-6.6 1.8-1.9 3.9-3.4 6.4-4.4 2.5-1 5.3-1.6 8.4-1.6 3 0 5.9.5 8.3 1.6 2.5 1 4.6 2.5 6.4 4.4s3.1 4.1 4.1 6.6 1.5 5.2 1.5 8.2c0 2.9-.4 5.7-1.4 8.2-.9 2.5-2.3 4.7-4.1 6.6-1.8 1.9-3.9 3.4-6.4 4.4-2.5 1-5.3 1.6-8.4 1.6-3.1 0-6-.5-8.4-1.6-2.5-1-4.6-2.5-6.4-4.4-1.8-1.9-3.1-4.1-4.1-6.6-1-2.5-1.4-5.2-1.4-8.2z"/></defs><clipPath id="p"><use xlink:href="#o" overflow="visible"/></clipPath><path clip-path="url(#p)" fill="#fff" d="M509.6 375h50.9v52.2h-50.9z"/><path fill="#fff" d="M581 414.4l-.8 7.5h-6.9c-1.8 0-3.4-.3-4.7-.8-1.4-.5-2.5-1.3-3.4-2.2-.8-.9-1.6-2-2-3.2s-.6-2.6-.6-4.1v-23.2h-6.1l.8-7.4h5.2v-11.9l9.1-.9V381h9.3v7.4h-9.3v19.1c0 1.7.1 2.9.2 3.9.1.9.4 1.7.8 2.1.4.4 1.2.7 2 .8.9.1 2.2.2 3.8.2h2.5v-.1z"/><defs><path id="q" d="M581 414.4l-.8 7.5h-6.9c-1.8 0-3.4-.3-4.7-.8-1.4-.5-2.5-1.3-3.4-2.2-.8-.9-1.6-2-2-3.2s-.6-2.6-.6-4.1v-23.2h-6.1l.8-7.4h5.2v-11.9l9.1-.9V381h9.3v7.4h-9.3v19.1c0 1.7.1 2.9.2 3.9.1.9.4 1.7.8 2.1.4.4 1.2.7 2 .8.9.1 2.2.2 3.8.2h2.5v-.1z"/></defs><clipPath id="r"><use xlink:href="#q" overflow="visible"/></clipPath><path clip-path="url(#r)" fill="#fff" d="M551.2 362.9h35.1v64.3h-35.1z"/><path fill="#fff" d="M222.9 414.4l-.8 7.5h-6.9c-1.8 0-3.4-.3-4.7-.8s-2.5-1.3-3.4-2.2-1.6-2-2-3.2-.6-2.6-.6-4.1v-23.2h-6.1l.8-7.4h5.2v-11.9l9.1-.9V381h9.3v7.4h-9.3v19.1c0 1.7.1 2.9.2 3.9s.4 1.7.8 2.1c.4.4 1.2.7 2 .8.9.1 2.2.2 3.8.2h2.5v-.1z"/><defs><path id="s" d="M222.9 414.4l-.8 7.5h-6.9c-1.8 0-3.4-.3-4.7-.8s-2.5-1.3-3.4-2.2-1.6-2-2-3.2-.6-2.6-.6-4.1v-23.2h-6.1l.8-7.4h5.2v-11.9l9.1-.9V381h9.3v7.4h-9.3v19.1c0 1.7.1 2.9.2 3.9s.4 1.7.8 2.1c.4.4 1.2.7 2 .8.9.1 2.2.2 3.8.2h2.5v-.1z"/></defs><clipPath id="t"><use xlink:href="#s" overflow="visible"/></clipPath><path clip-path="url(#t)" fill="#fff" d="M193.1 362.9h35.1v64.3h-35.1z"/><g fill="#fff"><path d="M97.4 331.3c-36.5 0-66.1 29.6-66.1 66.1 0 36.5 29.6 66.1 66.1 66.1 36.5 0 66.1-29.6 66.1-66.1s-29.7-66.1-66.1-66.1zm0 13c7 0 13.2 2.5 17.2 6.4l-1.7 2.3c-3.4-3.6-9.1-6-15.6-6s-12.2 2.4-15.6 6l-1.7-2.3c4-3.8 10.3-6.4 17.4-6.4zm10.7 11.9c-2.8-2.1-6.6-3.4-10.7-3.4s-7.9 1.2-10.7 3.4c-.6.5-1.3 1-1.8 1.6l-1.7-2.4c3.1-3.2 8.3-5.3 14.1-5.3 5.7 0 10.7 2 13.8 5.1l-1.7 2.3c-.2-.4-.7-.9-1.3-1.3zm0 3.6l-1.7 2.3c-2.1-2-5.4-3.4-9.2-3.4-3.8 0-7.1 1.4-9.2 3.4l-1.7-2.3c2.6-2.3 6.5-3.8 10.8-3.8 4.6.1 8.4 1.5 11 3.8zm-24.4 5.8H111c1.2 0 2.2.5 2.2 1.6V385c0 1.2-1 2.6-2.2 2.6H83.7c-1.2 0-2-1.5-2-2.6v-17.8c0-1.1.9-1.6 2-1.6zm41.8 63.4l-1.7-1.7c.9-.7 1.5-1.8 1.5-2.9 0-2.1-1.7-3.8-3.8-3.8-2.1 0-3.8 1.7-3.8 3.8 0 1.3.6 2.3 1.5 2.9l-1.7 1.7c-1.4-1.2-2.2-3-2.2-4.8 0-1.5.5-2 1.5-4.1h-.5v-18.9h-1v40.1l1 1v2.8H97.5v-2.8l2.5-1.4h.6v-12.6h-6.3v12.9l2.1 1v3.2H78.6v-3.2l1.7-1.3V401h-1.7v18.9h-.9c.9 2.1 1.5 2.6 1.5 4.1 0 1.9-.8 3.7-2.2 4.7l-1.7-1.6c.9-.6 1.5-1.8 1.5-2.9 0-2.1-1.7-3.7-3.8-3.7s-3.8 1.7-3.8 3.8c0 1.3.6 2.3 1.5 2.9l-1.7 1.7c-1.3-1.2-2.3-2.7-2.3-4.6 0-1.5 1.3-2.8 1.3-3.9v-29.3c0-1.2 1.2-2 2.2-2h53.4c1.2 0 1.9.9 1.9 2v29.2c2.1 1 1.7 2.4 1.7 3.9.2 2.1-.3 3.8-1.7 4.8zM90.4 371.3c-1.9 0-3.5 1.6-3.5 3.5s1.6 3.5 3.5 3.5 3.5-1.6 3.5-3.5c0-2-1.6-3.5-3.5-3.5zm0 5.2c-.9 0-1.8-.8-1.8-1.8s.8-1.8 1.8-1.8c.9 0 1.8.8 1.8 1.8 0 1.1-.8 1.8-1.8 1.8zM104.4 371.3c-1.9 0-3.5 1.6-3.5 3.5s1.6 3.5 3.5 3.5 3.5-1.6 3.5-3.5c-.1-2-1.6-3.5-3.5-3.5zm0 5.2c-.9 0-1.8-.8-1.8-1.8s.8-1.8 1.8-1.8c.9 0 1.8.8 1.8 1.8 0 1.1-.9 1.8-1.8 1.8z"/></g></svg>
