<svg width="16" height="14" viewBox="0 0 16 14" xmlns="http://www.w3.org/2000/svg"><g fill="none" fill-rule="evenodd"><g fill="#fff"><g><path d="M15.628 2.268c-.562.25-1.166.418-1.797.493.646-.386 1.143-1 1.377-1.73-.605.358-1.275.62-1.988.76-.572-.61-1.386-.99-2.286-.99-1.728 0-3.13 1.402-3.13 3.13 0 .247.027.486.082.714-2.602-.13-4.91-1.376-6.453-3.27-.268.46-.423 1-.423 1.574 0 1.084.553 2.043 1.392 2.605-.513-.016-.995-.157-1.418-.39V5.2c0 1.517 1.08 2.783 2.51 3.07-.262.07-.54.11-.824.11-.202 0-.398-.02-.588-.058.398 1.244 1.553 2.15 2.923 2.175-1.07.84-2.42 1.34-3.887 1.34-.252 0-.502-.016-.746-.044 1.385.887 3.03 1.407 4.797 1.407 5.757 0 8.906-4.77 8.906-8.907 0-.134-.003-.27-.01-.405.612-.44 1.143-.99 1.562-1.62"/></g></g></g></svg>