<svg width="47" height="36" viewBox="0 0 47 36" xmlns="http://www.w3.org/2000/svg"><g fill="none" fill-rule="evenodd"><g fill="#D5D2C2"><g><path d="M40.324 31.32l-.823-2.2 3.63-1.362.826 2.198-3.632 1.363zM31.73 8.346l-.824-2.2L34.54 4.78l.82 2.198-3.63 1.37zM34.8.524L28.37 2.94 40.51 35.405l6.43-2.42L34.8.525zM22.194 9.95h3.88v3.688h-3.88V9.95zm.06 19.192h3.876v2.35h-3.876v-2.35zM20.7 35.24h6.867V2.103H20.7V35.24zM1.252 29.14h3.88v2.35h-3.88v-2.35zm0-24.536h3.88v2.35h-3.88v-2.35zM0 35.388h6.867V.713H0v34.675zM10.465 8.326h6.38v3.695h-6.38V8.327zm-1.232 27.15h8.845V4.743H9.233v30.733z"/></g></g></g></svg>