<svg xmlns="http://www.w3.org/2000/svg" viewBox="75 369 465 53.6" enable-background="new 75 369 465 53.6"><g fill="#fff"><path d="M103.5 383.2c6 0 9.2 3.9 9.2 8.2 0 5.3-5.3 10.6-11.7 10.6h-2.5v6c1.8 0 3.5.4 5 .7 0 1.1 0 2.1-.4 2.8H88.6c-.4-1.1-.4-2.1-.4-2.8 1.1 0 2.5-.4 3.5-.7 0-.7.4-1.8.4-2.5v-12.4c0-2.5 0-4.3-.4-6-1.1-.4-2.5-.7-3.5-.7 0-1.1 0-2.1.4-2.8h6.7c2.6-.4 5.8-.4 8.2-.4zm-5.3 3.9v10.3h1.8c2.1 0 3.9-.7 4.3-.7 1.1-.7 1.4-2.5 1.4-4.6 0-2.1-1.4-5-4.3-5h-3.2zM129.8 399.5c0-2.8-.4-5-3.2-5-1.1 0-2.1.4-3.2.7V408c1.1 0 2.1.4 2.8.7 0 1.1 0 2.1-.4 2.8H113.7c0-.4-.4-1.8-.4-2.8 1.1 0 2.5-.4 3.5-.7v-24.5c-1.1-.4-2.1-.7-3.2-.7-.4-.7-.4-1.8 0-2.5 3.2-1.1 6-1.4 9.2-1.4V392c1.8-.7 3.9-1.4 6-1.4 3.2 0 6.7 2.1 6.7 6.7v11c1.1 0 2.5.4 3.2.7 0 1.1 0 2.1-.4 2.8H127c0-.4-.4-1.8-.4-2.8.7 0 1.4-.4 2.1-.7v-8.9h1.1zM150.3 404.9v3.2c1.1 0 2.5.4 3.2.7 0 1.1 0 2.1-.4 2.8h-12.4c0-.4-.4-1.8-.4-2.8 1.1 0 2.5-.4 3.5-.7v-12.8c-1.1-.4-2.1-.7-3.2-.7-.4-.7-.4-1.8 0-2.5 3.2-1.1 6-1.4 9.2-1.4l.4.4v13.8zm-7.1-20.2c0-2.1 1.8-4.6 3.9-4.6 1.8 0 3.5 1.1 3.5 3.2s-1.8 4.3-3.9 4.3c-1.3-.1-3.5-1.2-3.5-2.9zM164.9 404.9v3.2c1.1 0 2.5.4 3.2.7 0 1.1 0 2.1-.4 2.8h-12.4c0-.4-.4-1.8-.4-2.8 1.1 0 2.5-.4 3.5-.7v-24.5c-1.1-.4-2.1-.7-3.2-.7-.4-.7-.4-1.8 0-2.5 2.8-.7 6-1.1 9.2-1.1l.4.4V404.9zM178.7 404.9v3.2c1.1 0 2.5.4 3.2.7 0 1.1 0 2.1-.4 2.8h-12.4c0-.4-.4-1.8-.4-2.8 1.1 0 2.5-.4 3.5-.7v-24.5c-1.1-.4-2.1-.7-3.2-.7-.4-.7-.4-1.8 0-2.5 3.2-.7 6-1.1 9.2-1.1l.7.4V404.9h-.2zM185.8 394.6c-.7-.4-2.1-.7-2.8-.7 0-1.1 0-2.1.4-2.8h11.3c.4 1.1.4 1.8.4 2.8l-2.5.7 2.8 8.5v3.9l3.9-12.4-2.5-.7c0-1.1 0-2.1.4-2.8h9.9c.4 1.1.4 1.8.4 2.8-.7.4-1.8.7-2.8.7l-6 16.7c-2.1 6.4-5 11.3-8.9 11.3-2.1 0-4.3-.4-5.3-1.1 0-1.4 0-2.5 1.1-3.2h.7c3.5 0 6.4-1.4 7.4-5l.7-1.8h-1.8l-6.8-16.9zM218.4 402c1.4-.4 2.5-.4 3.9.4 0 1.4.4 3.2.4 5 1.1.4 2.5.7 4.6.7 1.8 0 3.2-.7 3.2-.7.7-.7 1.1-1.8 1.1-3.2 0-1.8-1.8-2.8-4.3-3.9l-3.2-1.4c-2.8-1.1-6-3.2-6-7.8 0-6.4 5.3-8.5 10.3-8.5 2.8 0 6.4.7 8.9 1.8 0 3.2-.4 5.3-.7 7.1-1.4.4-2.8.4-3.5-.4 0-1.4-.4-2.8-.4-3.9-1.4-.4-2.5-.4-4.3-.4-1.1 0-2.5.4-2.8.4-.7.4-1.1 1.4-1.1 2.5 0 2.1 2.5 2.8 4.3 3.9l3.5 1.4c2.8 1.4 6 3.5 6 7.4 0 5.3-3.9 9.9-10.6 9.9-3.9 0-8.2-.7-10.3-2.1 0-3.2.3-5.7 1-8.2zM243.2 394.9c-.7-.4-2.1-.4-3.2-.7-.4-1.1-.4-1.8-.4-2.8 1.1-.4 2.1-.7 3.2-.7l2.5-5.7c1.1 0 2.1 0 3.5.4v5.7h6.7v3.9h-6.7v8.5c0 2.8.7 4.3 2.1 4.3 1.4 0 2.5-.4 4.3-.7.7.7 1.1 1.4 1.1 2.8-1.8 1.1-4.6 2.5-7.8 2.5-3.5 0-5.3-2.1-5.3-6v-11.5zM269.5 398.5c0-2.5-.7-4.3-2.5-4.3h-2.5c-.4 1.1-.4 2.1-.4 3.2-1.4.7-2.5.7-3.9.4-1.1-1.4-1.4-3.2-1.4-5 2.5-1.4 6-2.5 9.2-2.5 2.8 0 7.4 1.1 7.4 7.1v10.2c1.1 0 1.8-.4 2.8-.4.4.4.7 1.1.7 1.8-1.4 1.8-3.9 3.2-6.4 3.2-1.1 0-2.1-1.1-2.8-2.5-1.8 1.4-4.3 2.5-6.4 2.5-3.9 0-6-1.8-6-5.3.8-4.5 7.6-7.4 12.2-8.4zm0 8.5v-4.6c-2.1.4-4.3.7-4.6 1.1-.4.4-.7 1.4-.7 2.1 0 1.4 1.1 2.5 2.5 2.5 1 0 2.1-.8 2.8-1.1zM289.3 391c.4.7.7 2.1 1.1 3.5 1.4-2.1 3.2-3.5 6-3.5 1.8 0 2.8.4 3.9.7 0 3.2 0 5.7-.7 8.2-1.1.4-2.8.4-3.9 0 0-1.1-.4-3.2-.7-4.3h-.7c-1.1 0-2.5 1.1-3.9 3.2v9.9c1.8 0 3.9.4 5 .7 0 1.1 0 2.1-.4 2.8h-14.2c0-.4-.4-1.8-.4-2.8 1.1 0 2.5-.4 3.5-.7V396c-1.1-.4-2.1-.7-3.2-.7-.4-.7-.4-1.8 0-2.5 2.5-.7 5-1.4 7.8-1.4l.8-.4zM304.6 394.9c-.7-.4-2.1-.4-3.2-.7-.4-1.1-.4-1.8-.4-2.8 1.1-.4 2.1-.7 3.2-.7l2.5-5.7c1.1 0 2.1 0 3.5.4v5.7h6.7v3.9h-6.7v8.5c0 2.8.7 4.3 2.1 4.3 1.4 0 2.5-.4 4.3-.7.7.7 1.1 1.4 1.1 2.8-1.8 1.1-4.6 2.5-7.8 2.5-3.5 0-5.3-2.1-5.3-6v-11.5zM322 394.9c-1.1-.4-2.1-.7-3.2-1.1 0-1.1 0-2.1.4-2.8h8.8l.4.4v11c0 3.5 1.1 5 2.5 5 1.1 0 2.5-1.1 3.9-2.1v-10.6c-1.1-.4-2.1-.7-3.2-1.1 0-1.1 0-2.1.4-2.8h8.5l.4.4V407.1c1.1 0 1.8-.4 2.8-.4.4.4.7 1.1.7 1.8-1.4 1.8-3.9 3.2-6.4 3.2-1.1 0-2.5-1.4-2.8-3.2-1.8 1.8-3.9 3.2-6.7 3.2-3.9 0-6.4-2.5-6.4-7.1l-.1-9.7zM354.2 392.8c1.8-1.1 3.9-2.1 6.4-2.1 4.6 0 7.8 3.9 7.8 10.3 0 5.3-3.9 11.3-9.2 11.3-1.8 0-2.8-.4-4.3-1.1v7.8c1.8 0 3.5.4 5 .7 0 1.1 0 2.1-.4 2.8h-14.2c0-.4-.4-1.8-.4-2.8 1.1 0 2.5-.4 3.5-.7v-23.4c-1.1-.4-2.1-.7-3.2-.7-.4-.7-.4-1.8 0-2.5 2.5-.7 5-1.4 7.8-1.4l.7.4c.2 0 .5.7.5 1.4zm.7 3.2v10.6c1.1 1.1 2.5 1.4 3.9 1.4.7 0 1.4-.4 1.8-.7 1.1-1.1 1.8-3.2 1.8-5.3 0-3.5-1.4-7.1-4.3-7.1-1 0-2.1.4-3.2 1.1zM389.3 407.7h8.2c.7-2.1 1.1-4.3 1.4-6.4 1.4-.4 2.5 0 3.9.4 0 2.8 0 5.7-.4 9.6l-.4.7h-22.3c-.4-1.1-.4-2.1-.4-2.8 1.1 0 2.5-.4 3.5-.7 0-.7.4-1.8.4-2.5v-12.4c0-2.5 0-4.3-.4-6-1.1-.4-2.5-.7-3.5-.7 0-1.1 0-2.1.4-2.8h14.5c.4 1.1.4 1.8.4 2.8-1.4.4-2.8.7-5 .7v20.2h-.3zM414.5 390.7c6.4 0 8.2 5 8.2 8.5 0 1.1 0 1.8-.4 2.5l-.4.4H411c.4 2.8 1.8 6 5.3 6 1.8 0 3.2-.4 5.7-1.4.7.7 1.1 1.4 1.1 2.5-2.1 1.8-5.7 3.2-8.9 3.2-6.7 0-9.6-4.6-9.6-10.3-.4-5.7 3.9-11.4 9.9-11.4zm-3.9 8.1h6.1c0-2.1-.7-3.9-2.8-3.9-.4 0-1.4.4-1.8.7-.8.4-1.1 1.5-1.5 3.2zM436.8 398.5c0-2.5-.7-4.3-2.5-4.3h-2.5c-.4 1.1-.4 2.1-.4 3.2-1.4.7-2.5.7-3.9.4-1.1-1.4-1.4-3.2-1.4-5 2.5-1.4 6-2.5 9.2-2.5 2.8 0 7.4 1.1 7.4 7.1v10.2c1.1 0 1.8-.4 2.8-.4.4.4.7 1.1.7 1.8-1.4 1.8-3.9 3.2-6.4 3.2-1.1 0-2.1-1.1-2.8-2.5-1.8 1.4-4.3 2.5-6.4 2.5-3.9 0-6-1.8-6-5.3.5-4.5 7.3-7.4 12.2-8.4zm0 8.5v-4.6c-2.1.4-4.3.7-4.6 1.1-.4.4-.7 1.4-.7 2.1 0 1.4 1.1 2.5 2.5 2.5 1.1 0 1.8-.8 2.8-1.1zM457.4 390.7c1.4 0 2.8.4 4.3.7V384c-1.1-.4-2.1-.7-3.2-.7-.4-.7-.4-1.8 0-2.5 3.2-1.1 6-1.4 9.2-1.4l.4.4v28.3c1.1 0 1.8-.4 2.8-.4.4.4.7 1.1.7 1.8-1.4 1.8-3.9 3.2-6.4 3.2-1.4 0-2.5-1.4-3.2-3.2-1.8 2.1-3.9 3.2-6.4 3.2-5 0-7.4-4.6-7.4-10.3 0-6.8 4.2-11.7 9.2-11.7zm4.3 14.5v-9.9c-1.1-.4-2.1-.4-3.2-.4s-2.1.4-2.5.7c-.7 1.1-1.4 3.2-1.4 5.3 0 3.5 1.1 7.1 3.2 7.1.7-.3 2.1-1 3.9-2.8zM482.9 390.7c6.4 0 8.2 5 8.2 8.5 0 1.1 0 1.8-.4 2.5l-.4.4h-11c.4 2.8 1.8 6 5.3 6 1.8 0 3.2-.4 5.7-1.4.7.7 1.1 1.4 1.1 2.5-2.1 1.8-5.7 3.2-8.9 3.2-6.7 0-9.6-4.6-9.6-10.3.1-5.7 4-11.4 10-11.4zm-3.9 8.1h6.1c0-2.1-.7-3.9-2.8-3.9-.4 0-1.4.4-1.8.7-.4.4-1.1 1.5-1.5 3.2zM502.4 391c.4.7.7 2.1 1.1 3.5 1.4-2.1 3.2-3.5 6-3.5 1.8 0 2.8.4 3.9.7 0 3.2 0 5.7-.7 8.2-1.1.4-2.8.4-3.9 0 0-1.1-.4-3.2-.7-4.3h-.7c-1.1 0-2.5 1.1-3.9 3.2v9.9c1.8 0 3.9.4 5 .7 0 1.1 0 2.1-.4 2.8h-14.2c0-.4-.4-1.8-.4-2.8 1.1 0 2.5-.4 3.5-.7V396c-1.1-.4-2.1-.7-3.2-.7-.4-.7-.4-1.8 0-2.5 2.5-.7 5-1.4 7.8-1.4l.8-.4zM514.8 410.9c0-2.1.4-4.3.7-6.4 1.4-.4 2.5-.4 3.5 0 0 1.1.4 2.5.4 3.5.7.4 1.8.4 2.8.4 2.5 0 2.8-.7 2.8-2.1s-1.1-2.1-3.2-2.8c-3.5-1.1-6.7-2.5-6.7-6.4 0-5 4.6-6.7 8.2-6.7 2.8 0 5.7.4 7.4.7 0 2.1-.4 4.6-.7 6-1.4.4-2.5.4-3.5 0 0-1.1-.4-2.1-.7-3.2-.4-.4-1.1-.4-1.8-.4-2.8 0-2.8 1.1-2.8 1.8 0 3.2 10.3 2.8 10.3 9.2 0 5-3.9 7.1-9.2 7.1-2.8.7-5.7 0-7.5-.7z"/></g></svg>
