<svg xmlns="http://www.w3.org/2000/svg" viewBox="0 0 119.2 50.6" enable-background="new 0 0 119.2 50.6"><g fill="#74B378"><path d="M9.6 5.3h18.1C40.4 5.3 45 9.9 45 18.7s-5.6 13.2-18 13.2h-1.4V45h-16V5.3zm15.6 18h1.4c2.5 0 3.2-1.8 3.2-4.3s-1.1-3.9-3.2-3.9h-1.4v8.2zM47.5 42.8v-9.6h6.7c1.4 1.4 3.9 2.1 6.7 2.1 2.5 0 3.9-.4 3.9-1.8s-1.4-1.8-5.3-2.5c-7.1-1.4-12.1-3.9-12.1-13.1S54.6 4.5 64.9 4.5c5.3 0 9.6 1.1 13.1 3.2v9.6h-6.4c-1.1-1.1-3.9-1.8-6.7-1.8-2.8 0-3.9.7-3.9 1.4 0 1.4 1.4 1.8 5 2.1 11 1.8 13.8 5.7 13.8 13.5 0 8.5-6.4 13.8-18.4 13.8-6.1-.3-11-1.7-13.9-3.5zM83.7 45.3v-40h15.6v29.4h13.8V45H83.7v.3z"/></g></svg>
